<svg xmlns="http://www.w3.org/2000/svg" width="494" height="359.357" viewBox="0 0 494 359.357"><rect width="293.003" height="1.244" transform="translate(53.743 338.831)" fill="#3f3d56"/><path d="M539.061,425.144s-6.219,27.982,6.218,23.008,4.975-24.251,4.975-24.251Z" transform="translate(-324.143 -257.977)" fill="#ffb9b9"/><path d="M754.284,443.964s14.924,18.033,5.6,21.764-14.3-16.789-13.058-18.655S754.284,443.964,754.284,443.964Z" transform="translate(-419.986 -267.443)" fill="#ffb9b9"/><circle cx="18.655" cy="18.655" r="18.655" transform="translate(279.259 11.236)" fill="#ffb9b9"/><path d="M521.555,70.3,519.068,89.58l20.52,7.462,4.353-21.764Z" transform="translate(-237.786 -33.262)" fill="#ffb9b9"/><path d="M633.593,207.707s-10.541-5.2-12.732-9.442l-4.679,4.468s-33.578-3.109-38.553,13.68-.622,77.728-.622,77.728-6.84,27.36-4.974,27.982,24.873,11.815,57.208,5.6c0,0,14.3-2.487,16.789-.622s-1.244-29.848-1.244-29.848,24.873-55.964,20.52-62.8S641.677,213.3,641.677,213.3l1.244-6.84S634.215,210.194,633.593,207.707Z" transform="translate(-338.535 -151.7)" fill="#b4e2e2"/><path d="M564.9,224.447s-11.193,5.6-13.058,14.3-19.276,80.838-17.411,85.19,1.244,9.949,1.244,9.949l16.167-1.865s-3.109-4.353-1.244-6.218,3.731-8.084,2.487-10.571-2.487,1.866,4.353-6.218S579.823,226.934,564.9,224.447Z" transform="translate(-322.385 -163.855)" fill="#b4e2e2"/><path d="M722.728,264.574s5.285.311,6.529,9.016,3.42,62.493,3.42,62.493,8.083,17.411,4.974,19.9-1.244,6.218-1.244,6.218l-11.193,3.109-24.251-37.931Z" transform="translate(-398.661 -182.769)" fill="#b4e2e2"/><path d="M568.978,428.622s-3.731.622-3.731,14.3-6.84,55.964-2.487,62.8,4.974,68.4,4.974,68.4,11.815,4.975,21.764-11.193l1.244-8.706,2.487-42.284,9.949-52.855,13.68,58.452s-1.866,70.266,4.975,70.266,19.9-5.6,19.9-5.6,3.109-6.218,1.866-9.327-2.488-2.487-1.244-4.975,3.109-67.157,3.109-67.157-2.487-66.535-5.6-68.4S568.978,428.622,568.978,428.622Z" transform="translate(-333.984 -259.728)" fill="#133030"/><path d="M559.022,691.134l-9.949,10.571s-18.033,16.789-2.487,17.411,24.251-9.949,24.251-11.193.622-5.6,4.975-5.6,14.924-10.571,12.436-14.924-9.949-6.218-9.949-6.218Z" transform="translate(-324.958 -379.22)" fill="#133030"/><path d="M673.344,719.783s-7.462,14.924-3.109,18.033a52.319,52.319,0,0,1,5.6,4.353s3.731-.622,3.109,4.975,22.386,8.705,23.629,4.352.622-13.058-1.865-15.545-9.949-19.9-9.949-19.9S682.671,706.725,673.344,719.783Z" transform="translate(-384.029 -394.19)" fill="#133030"/><path d="M692.676,124.8l3.514-.5s-4.892-9-14.361-10.639l3.324-2.243s-5.776-4.128-13.24,1.178c-3.924,2.789-8.479,6.081-11.831,10.225l-3.428-.838.661,3.5-5.778,1.927,5.278.69a18.117,18.117,0,0,0-1.417,5.191,6.961,6.961,0,0,0,1.395,5.028h0s5.978-7.247,6.291-8.528l-.783,3.2s3.906-2.1,4.375-4.023l1.2,2.669,1.734-3.311,9.905,6.155-1.041-3.31,6.458,2.6-1.758-4.164s6.548,6.014,5.978,9.609a17.419,17.419,0,0,0,.828,7.476S699.94,131.665,692.676,124.8Z" transform="translate(-375.909 -109.886)" fill="#2f2e41"/><rect width="99.58" height="1.192" transform="translate(394.42 226.876)" fill="#3f3d56"/><rect width="24.004" height="24.004" transform="translate(87.184 319.04)" fill="#f2fafa"/><path d="M321.311,730.469H296.044V705.2h25.267Zm-24-1.263h22.74v-22.74h-22.74Z" transform="translate(-213.401 -390.583)" fill="#3f3d56"/><rect width="16.287" height="15.723" transform="matrix(0.933, -0.361, 0.361, 0.933, 123.235, 114.528)" fill="#f2fafa"/><path d="M385.673,327.3l-15.99,6.184-5.97-15.436,15.99-6.184Zm-15.489,5.1,14.391-5.566L379.2,312.942l-14.391,5.566Z" transform="translate(-244.423 -205.141)" fill="#133030"/><rect width="16.287" height="15.723" transform="translate(421.875 272.486) rotate(71.027)" fill="#f2fafa"/><path d="M898.784,640.016,893.21,623.8l15.652-5.381,5.574,16.213Zm-4.513-15.671,5.017,14.592,14.087-4.843L908.358,619.5Z" transform="translate(-485.224 -349.722)" fill="#3f3d56"/><path d="M272.278,509.5c8.906.191,15.991,6.645,15.991,6.645s-7.355,6.144-16.261,5.953-15.991-6.645-15.991-6.645S263.372,509.313,272.278,509.5Z" transform="translate(-196.755 -298.368)" fill="#b4e2e2"/><path d="M191.242,439.71c8.046,3.823,17.273,1.231,17.273,1.231s-3.819-8.79-11.866-12.613-17.273-1.23-17.273-1.23S183.2,435.887,191.242,439.71Z" transform="translate(-160.495 -259.093)" fill="#b4e2e2"/><path d="M189.541,444.525c8.871-.811,16.636,4.806,16.636,4.806s-6.618,6.932-15.489,7.743-16.636-4.807-16.636-4.807S180.67,445.336,189.541,444.525Z" transform="translate(-157.976 -267.684)" fill="#133030"/><path d="M265.091,433.634c-.85,8.868,4.732,16.658,4.732,16.658s6.961-6.587,7.812-15.455-4.732-16.658-4.732-16.658S265.941,424.767,265.091,433.634Z" transform="translate(-201.006 -255.269)" fill="#133030"/><path d="M341.486,541.336c-4.653,7.6-3.052,17.046-3.052,17.046s9.145-2.867,13.8-10.464,3.052-17.045,3.052-17.045S346.139,533.74,341.486,541.336Z" transform="translate(-232.747 -308.421)" fill="#133030"/><path d="M277.439,587.26l.678-.459a21.242,21.242,0,0,1-3.749-11.781c.019-6.161,3.045-11.86,5.972-17.371.543-1.023,1.085-2.043,1.606-3.062a66.817,66.817,0,0,0,5.2-13.05c4.54-16.87.07-36.775-11.956-53.244-9.54-13.065-23.762-24.489-43.477-34.926l-.383.723c19.6,10.377,33.734,21.723,43.2,34.686,11.881,16.271,16.3,35.915,11.826,52.548a66.022,66.022,0,0,1-5.136,12.89c-.519,1.015-1.059,2.031-1.6,3.05-2.973,5.6-6.048,11.389-6.068,17.753A22.071,22.071,0,0,0,277.439,587.26Z" transform="translate(-185.074 -271.435)" fill="#133030"/><circle cx="7.774" cy="7.774" r="7.774" transform="translate(0 166.966)" fill="#133030"/><path d="M728.182,327.261,628.109,291.318l17.866-49.744,62.31-15.281,37.763,51.224Z" transform="translate(-284.171 -106.62)" fill="#2f2e41"/><path d="M871.42,417.747,796.635,389.24c19.414-26.005,28.1-44.349,28.1-73.215l74.785,28.508C882.149,369.212,874.883,387.765,871.42,417.747Z" transform="translate(-439.532 -207.009)" fill="#f2f2f2"/><rect width="41.463" height="1.929" transform="translate(399.03 126.602) rotate(20.866)" fill="#133030"/><rect width="41.463" height="1.929" transform="translate(396.283 133.831) rotate(20.866)" fill="#133030"/><rect width="41.463" height="1.929" transform="translate(393.534 141.059) rotate(20.866)" fill="#133030"/><rect width="41.463" height="1.929" transform="translate(390.787 148.287) rotate(20.866)" fill="#133030"/><rect width="41.463" height="1.929" transform="translate(388.039 155.516) rotate(20.866)" fill="#133030"/><rect width="41.463" height="1.929" transform="translate(385.292 162.744) rotate(20.866)" fill="#133030"/><rect width="41.463" height="1.929" transform="translate(380.403 169.973) rotate(20.866)" fill="#3f3d56"/><rect width="41.463" height="1.929" transform="translate(377.575 177.201) rotate(20.866)" fill="#3f3d56"/><path d="M723.794,347.42,623.721,311.478,643.9,255.3l42.26,39.625,57.814-3.682Z" transform="translate(-282.095 -120.301)" fill="#133030"/><path d="M672.341,350.053l-49.9-17.922L634.6,298.277l.992.356-11.8,32.861L672.7,349.06Z" transform="translate(-284.592 -140.63)" fill="#b4e2e2"/><rect width="15.546" height="6.218" transform="translate(355.098 168.137) rotate(19.756)" fill="#b4e2e2"/><path d="M299.189,602.589l-78.324-.041.615-43.971,38.925,17.5,39.4-16.4Z" transform="translate(-100.733 -263.315)" fill="#3f3d56"/><rect width="11.452" height="4.581" transform="translate(125.999 319.161) rotate(0.801)" fill="#b4e2e2"/><path d="M300.433,559.5l-39.59,20.183-39.2-20.183v-1.164h78.792Z" transform="translate(-101.088 -263.199)" fill="#b4e2e2"/><ellipse cx="4.758" cy="13.172" rx="4.758" ry="13.172" transform="translate(409.85 124.296) rotate(-69.134)" fill="#2f7a79"/><path d="M943.949,211.623A20.021,20.021,0,0,0,918.886,224.8c-3.284,10.559,5.664,49.213,5.664,49.213s29.289-26.765,32.572-37.323A20.021,20.021,0,0,0,943.949,211.623ZM935.188,239.8a9.484,9.484,0,1,1,11.872-6.24A9.484,9.484,0,0,1,935.188,239.8Z" transform="translate(-497.028 -157.59)" fill="#2f7a79"/></svg>